<svg width="63" height="65" viewBox="0 0 63 65" fill="none" xmlns="http://www.w3.org/2000/svg">
<path d="M17.6212 43.7082C17.7091 44.02 17.8587 44.3117 18.0615 44.5667C18.2642 44.8217 18.5162 45.0351 18.803 45.1946C19.0898 45.354 19.4058 45.4565 19.7329 45.4961C20.06 45.5358 20.3919 45.5118 20.7096 45.4255C21.0273 45.3393 21.3246 45.1925 21.5845 44.9935C21.8444 44.7945 22.0617 44.5472 22.2242 44.2658C22.3868 43.9844 22.4912 43.6743 22.5316 43.3532C22.5719 43.0322 22.5475 42.7065 22.4596 42.3947L17.6212 43.7082ZM3.21314 9.09878C2.8942 9.00736 2.55993 8.979 2.22973 9.01536C1.89954 9.05171 1.57998 9.15205 1.28961 9.31056C0.999246 9.46907 0.743845 9.68258 0.538228 9.93872C0.332611 10.1949 0.180873 10.4885 0.0918172 10.8027C0.00276185 11.1168 -0.0218377 11.4452 0.019446 11.7687C0.0607298 12.0923 0.167075 12.4045 0.332311 12.6874C0.497547 12.9703 0.718384 13.2182 0.982009 13.4167C1.24563 13.6151 1.5468 13.7603 1.86803 13.8436L3.21314 9.09878ZM60.0558 45.2187C60.3826 45.1445 60.6909 45.0068 60.9625 44.8138C61.2341 44.6207 61.4636 44.3762 61.6373 44.0946C61.811 43.8131 61.9254 43.5002 61.9738 43.1745C62.0221 42.8488 62.0035 42.5169 61.9189 42.1984C61.8344 41.8799 61.6857 41.5813 61.4815 41.3201C61.2773 41.059 61.0219 40.8407 60.7303 40.6781C60.4387 40.5155 60.1169 40.4119 59.7838 40.3734C59.4507 40.3349 59.1131 40.3624 58.791 40.4541L60.0558 45.2187ZM26.6254 51.2408C27.6627 54.9185 25.3874 58.803 21.3588 59.8308L22.6202 64.5953C29.2354 62.9108 33.2774 56.3797 31.4638 49.9274L26.6254 51.2408ZM21.3588 59.8308C17.3034 60.8651 13.2346 58.5535 12.1906 54.843L7.3522 56.1564C9.15907 62.5759 16.0319 66.2765 22.6202 64.5953L21.3588 59.8308ZM12.1906 54.843C11.1533 51.1653 13.4286 47.2808 17.4573 46.253L16.1958 41.4917C9.58067 43.1762 5.5353 49.7041 7.3522 56.1564L12.1906 54.843ZM17.4573 46.253C21.5127 45.2187 25.5815 47.5303 26.6254 51.2408L31.4638 49.9274C29.657 43.5079 22.7842 39.8072 16.1958 41.4885L17.4573 46.253ZM22.4596 42.3947L15.2589 16.8153L10.4205 18.1287L17.6212 43.7082L22.4596 42.3947ZM8.91481 10.6486L3.21314 9.09878L1.86803 13.8436L7.57304 15.3968L8.91481 10.6486ZM15.2589 16.8153C14.8344 15.3372 14.0268 13.9922 12.915 12.9115C11.8032 11.8308 10.425 11.0511 8.91481 10.6486L7.57973 15.3968C9.0018 15.7842 10.0592 16.8448 10.4205 18.1287L15.2589 16.8153ZM29.6804 52.968L60.0558 45.2187L58.7944 40.4541L28.4156 48.2035L29.6804 52.968Z" fill="#2166D5"/>
<path d="M24.7396 22.0501C23.1323 16.2152 22.3303 13.2961 23.6956 10.9987C25.0577 8.69795 28.057 7.91664 34.0554 6.35068L40.4184 4.69496C46.4169 3.13233 49.4161 2.34769 51.7791 3.67426C54.142 5.00416 54.9473 7.91996 56.5513 13.7582L58.2581 19.9489C59.8654 25.7838 60.6707 28.703 59.3053 31.0037C57.9399 33.3011 54.9407 34.0857 48.9422 35.6484L42.5792 37.3074C36.5807 38.87 33.5815 39.6514 31.2186 38.3248C28.8557 36.9949 28.0536 34.0791 26.4463 28.2442L24.7396 22.0501Z" stroke="#2166D5" stroke-width="5"/>
</svg>
