<svg width="74" height="66" viewBox="0 0 74 66" fill="none" xmlns="http://www.w3.org/2000/svg">
<path d="M29.8642 44.6667L39.9383 48C39.9383 48 65.1235 43 68.4815 43C71.8395 43 71.8395 46.3333 68.4815 49.6667C65.1235 53 53.3704 63 43.2963 63C33.2222 63 26.5062 58 19.7901 58H3" stroke="#2166D5" stroke-width="6" stroke-linecap="round" stroke-linejoin="round"/>
<path d="M3 38C6.35 34.6667 13.05 29.6667 19.75 29.6667C26.45 29.6667 42.3625 36.3333 44.875 39.6667C47.3875 43 39.85 48 39.85 48M23.1 19.6667V6.33333C23.1 5.44928 23.4529 4.60143 24.0812 3.97631C24.7094 3.35119 25.5615 3 26.45 3H66.65C67.5385 3 68.3906 3.35119 69.0188 3.97631C69.6471 4.60143 70 5.44928 70 6.33333V33" stroke="#2166D5" stroke-width="6" stroke-linecap="round" stroke-linejoin="round"/>
<path d="M38 3H55V18H38V3Z" stroke="#2166D5" stroke-width="6" stroke-linecap="round" stroke-linejoin="round"/>
</svg>
