<svg width="80" height="80" viewBox="0 0 80 80" fill="none" xmlns="http://www.w3.org/2000/svg">
<path d="M52.715 46.5833C52.1431 46.5833 51.5945 46.8072 51.1901 47.2057C50.7856 47.6042 50.5584 48.1447 50.5584 48.7083C50.5584 49.2719 50.7856 49.8124 51.1901 50.2109C51.5945 50.6095 52.1431 50.8333 52.715 50.8333H62.7792C63.3512 50.8333 63.8997 50.6095 64.3042 50.2109C64.7086 49.8124 64.9358 49.2719 64.9358 48.7083C64.9358 48.1447 64.7086 47.6042 64.3042 47.2057C63.8997 46.8072 63.3512 46.5833 62.7792 46.5833H52.715ZM6 24.625C6 21.8071 7.13607 19.1046 9.15828 17.112C11.1805 15.1194 13.9232 14 16.783 14H64.217C67.0768 14 69.8195 15.1194 71.8417 17.112C73.8639 19.1046 75 21.8071 75 24.625V54.375C75 57.1929 73.8639 59.8954 71.8417 61.888C69.8195 63.8806 67.0768 65 64.217 65H16.7859C13.9261 65 11.1834 63.8806 9.16116 61.888C7.13894 59.8954 6.00288 57.1929 6.00288 54.375V24.625H6ZM16.783 18.25C15.0671 18.25 13.4215 18.9217 12.2082 20.1172C10.9949 21.3127 10.3132 22.9342 10.3132 24.625V26.75H70.6868V24.625C70.6868 22.9342 70.0051 21.3127 68.7918 20.1172C67.5785 18.9217 65.9329 18.25 64.217 18.25H16.783ZM10.3132 54.375C10.3132 56.0658 10.9949 57.6873 12.2082 58.8828C13.4215 60.0784 15.0671 60.75 16.783 60.75H64.217C65.9329 60.75 67.5785 60.0784 68.7918 58.8828C70.0051 57.6873 70.6868 56.0658 70.6868 54.375V31H10.3161V54.375H10.3132Z" fill="#2166D5"/>
</svg>
