<svg width="80" height="80" viewBox="0 0 80 80" fill="none" xmlns="http://www.w3.org/2000/svg">
<path d="M10 40.8571H40V46H10V40.8571ZM5 28H30V33.1429H5V28Z" fill="#2166D5"/>
<path d="M74.796 41.5124L67.2405 24.0141C67.0466 23.5644 66.7239 23.181 66.3125 22.9117C65.901 22.6424 65.4189 22.499 64.926 22.4993H57.3706V17.4998C57.3706 16.8368 57.1052 16.201 56.6329 15.7322C56.1606 15.2634 55.52 15 54.8521 15H14.5562V19.9995H52.3336V51.3865C51.186 52.0479 50.1817 52.9283 49.3785 53.9768C48.5754 55.0254 47.9894 56.2214 47.6542 57.4959H31.828C31.215 55.1395 29.7573 53.0858 27.7279 51.7199C25.6986 50.354 23.237 49.7697 20.8046 50.0763C18.3722 50.383 16.136 51.5596 14.5151 53.3857C12.8942 55.2118 12 57.562 12 59.9956C12 62.4293 12.8942 64.7795 14.5151 66.6056C16.136 68.4317 18.3722 69.6083 20.8046 69.915C23.237 70.2216 25.6986 69.6373 27.7279 68.2714C29.7573 66.9055 31.215 64.8518 31.828 62.4954H47.6542C48.2021 64.6408 49.455 66.5436 51.2148 67.9028C52.9746 69.262 55.1408 70 57.3706 70C59.6004 70 61.7665 69.262 63.5263 67.9028C65.2861 66.5436 66.539 64.6408 67.0869 62.4954H72.4815C73.1495 62.4954 73.79 62.232 74.2624 61.7632C74.7347 61.2944 75 60.6586 75 59.9956V42.4973C75.0001 42.1587 74.9307 41.8236 74.796 41.5124ZM22.1117 64.9952C21.1155 64.9952 20.1416 64.7019 19.3133 64.1526C18.485 63.6032 17.8394 62.8224 17.4581 61.9089C17.0769 60.9953 16.9771 59.9901 17.1715 59.0203C17.3659 58.0505 17.8456 57.1597 18.55 56.4605C19.2544 55.7613 20.152 55.2851 21.129 55.0922C22.1061 54.8993 23.1189 54.9983 24.0393 55.3767C24.9597 55.7551 25.7463 56.3959 26.2998 57.2181C26.8533 58.0402 27.1487 59.0068 27.1487 59.9956C27.1473 61.3212 26.6162 62.5921 25.6719 63.5294C24.7276 64.4667 23.4472 64.9938 22.1117 64.9952ZM57.3706 27.4988H63.2638L68.6635 39.9976H57.3706V27.4988ZM57.3706 64.9952C56.3743 64.9952 55.4005 64.7019 54.5722 64.1526C53.7438 63.6032 53.0982 62.8224 52.717 61.9089C52.3358 60.9953 52.236 59.9901 52.4304 59.0203C52.6247 58.0505 53.1044 57.1597 53.8089 56.4605C54.5133 55.7613 55.4108 55.2851 56.3879 55.0922C57.365 54.8993 58.3777 54.9983 59.2981 55.3767C60.2185 55.7551 61.0052 56.3959 61.5587 57.2181C62.1121 58.0402 62.4075 59.0068 62.4075 59.9956C62.4062 61.3212 61.8751 62.5921 60.9308 63.5294C59.9864 64.4667 58.706 64.9938 57.3706 64.9952ZM69.963 57.4959H67.0869C66.5321 55.3547 65.2772 53.4567 63.5188 52.0996C61.7604 50.7424 59.598 50.0028 57.3706 49.9966V44.9971H69.963V57.4959Z" fill="#2166D5"/>
</svg>
