<svg width="80" height="80" viewBox="0 0 80 80" fill="none" xmlns="http://www.w3.org/2000/svg">
<path d="M39.77 6.87796C40.1828 6.36157 40.6939 5.93217 41.2739 5.61461C41.8538 5.29704 42.4909 5.09762 43.1485 5.02789C43.806 4.95816 44.4708 5.0195 45.1045 5.20836C45.7381 5.39723 46.328 5.70986 46.84 6.12817L63.15 19.4444C64.047 20.1765 64.6619 21.1972 64.8899 22.3322C65.1179 23.4672 64.9447 24.6461 64.4 25.6676C62.974 25.2319 61.4911 25.0112 60 25.0128H58.5L59.99 23.3133L51.4 16.3003L44.315 25.0178H37.87L47.525 13.1412L43.675 9.99707L31.685 25.0128H25.285L39.77 6.87796ZM52.5 50.0057C51.837 50.0057 51.2011 50.269 50.7322 50.7377C50.2634 51.2064 50 51.8421 50 52.505C50 53.1678 50.2634 53.8035 50.7322 54.2722C51.2011 54.741 51.837 55.0043 52.5 55.0043H57.5C58.163 55.0043 58.7989 54.741 59.2678 54.2722C59.7366 53.8035 60 53.1678 60 52.505C60 51.8421 59.7366 51.2064 59.2678 50.7377C58.7989 50.269 58.163 50.0057 57.5 50.0057H52.5ZM15 27.5121C15 26.8492 15.2634 26.2135 15.7322 25.7448C16.2011 25.2761 16.837 25.0128 17.5 25.0128H20.29L24.265 20.0142H17.5C15.5109 20.0142 13.6032 20.8042 12.1967 22.2103C10.7902 23.6164 10 25.5235 10 27.5121V57.5036C10 60.8178 11.317 63.9963 13.6612 66.3399C16.0054 68.6834 19.1848 70 22.5 70H60C62.6522 70 65.1957 68.9467 67.0711 67.0719C68.9464 65.1971 70 62.6543 70 60.0028V40.0085C70 37.3571 68.9464 34.8143 67.0711 32.9395C65.1957 31.0646 62.6522 30.0114 60 30.0114H17.5C16.837 30.0114 16.2011 29.7481 15.7322 29.2794C15.2634 28.8106 15 28.1749 15 27.5121ZM15 57.5036V34.5851C15.78 34.86 16.625 35.01 17.5 35.01H60C61.3261 35.01 62.5979 35.5366 63.5355 36.474C64.4732 37.4114 65 38.6828 65 40.0085V60.0028C65 61.3286 64.4732 62.6 63.5355 63.5374C62.5979 64.4748 61.3261 65.0014 60 65.0014H22.5C20.5109 65.0014 18.6032 64.2115 17.1967 62.8054C15.7902 61.3992 15 59.4921 15 57.5036Z" fill="#2166D5"/>
</svg>
