<svg width="28" height="27" viewBox="0 0 28 27" fill="none" xmlns="http://www.w3.org/2000/svg">
<path d="M12.4567 25.6697L1.29435 14.6465C1.12522 14.4795 1.00514 14.2986 0.934108 14.1037C0.863075 13.9089 0.828123 13.7001 0.82925 13.4774C0.82925 13.2547 0.864767 13.0459 0.9358 12.8511C1.00683 12.6562 1.12635 12.4753 1.29435 12.3083L12.4567 1.28505C12.7668 0.978847 13.1546 0.819066 13.6203 0.805705C14.0859 0.792344 14.4873 0.952124 14.8245 1.28505C15.1627 1.59125 15.3392 1.97428 15.3538 2.43413C15.3685 2.89399 15.2061 3.29038 14.8667 3.6233L6.57955 11.8072H25.4794C25.9586 11.8072 26.3606 11.9675 26.6853 12.2882C27.01 12.6089 27.1718 13.0053 27.1707 13.4774C27.1707 13.9506 27.0089 14.3476 26.6853 14.6682C26.3617 14.9889 25.9597 15.1487 25.4794 15.1476H6.57955L14.8667 23.3315C15.1768 23.6377 15.3392 24.0274 15.3538 24.5006C15.3685 24.9738 15.2061 25.3635 14.8667 25.6697C14.5567 26.0038 14.162 26.1708 13.6829 26.1708C13.2037 26.1708 12.7949 26.0038 12.4567 25.6697Z" fill="#2166D5"/>
</svg>
