<svg width="28" height="27" viewBox="0 0 28 27" fill="none" xmlns="http://www.w3.org/2000/svg">
<path d="M12.4567 25.6695L1.29435 14.6463C1.12522 14.4793 1.00514 14.2983 0.934108 14.1035C0.863075 13.9086 0.828123 13.6998 0.82925 13.4771C0.82925 13.2545 0.864767 13.0457 0.9358 12.8508C1.00683 12.656 1.12635 12.475 1.29435 12.308L12.4567 1.2848C12.7668 0.978603 13.1546 0.818822 13.6203 0.805461C14.0859 0.792099 14.4873 0.95188 14.8245 1.2848C15.1627 1.591 15.3392 1.97403 15.3538 2.43389C15.3685 2.89375 15.2061 3.29014 14.8667 3.62306L6.57955 11.807H25.4794C25.9586 11.807 26.3606 11.9673 26.6853 12.288C27.01 12.6086 27.1718 13.005 27.1707 13.4771C27.1707 13.9504 27.0089 14.3473 26.6853 14.668C26.3617 14.9887 25.9597 15.1484 25.4794 15.1473H6.57955L14.8667 23.3312C15.1768 23.6374 15.3392 24.0271 15.3538 24.5004C15.3685 24.9736 15.2061 25.3633 14.8667 25.6695C14.5567 26.0035 14.162 26.1705 13.6829 26.1705C13.2037 26.1705 12.7949 26.0035 12.4567 25.6695Z" fill="white"/>
</svg>
