<svg width="25" height="35" viewBox="0 0 25 35" fill="none" xmlns="http://www.w3.org/2000/svg">
<path d="M12.4762 16.6429C11.3486 16.6429 10.2671 16.2039 9.4698 15.4225C8.67245 14.6411 8.2245 13.5813 8.2245 12.4762C8.2245 11.3712 8.67245 10.3114 9.4698 9.52996C10.2671 8.74856 11.3486 8.30957 12.4762 8.30957C13.6038 8.30957 14.6853 8.74856 15.4826 9.52996C16.28 10.3114 16.7279 11.3712 16.7279 12.4762C16.7279 13.0234 16.6179 13.5652 16.4043 14.0708C16.1906 14.5763 15.8774 15.0356 15.4826 15.4225C15.0878 15.8094 14.6191 16.1163 14.1033 16.3257C13.5874 16.5351 13.0345 16.6429 12.4762 16.6429ZM12.4762 0.80957C9.31886 0.80957 6.29084 2.03873 4.05827 4.22666C1.82569 6.41458 0.571442 9.38204 0.571442 12.4762C0.571442 21.2262 12.4762 34.1429 12.4762 34.1429C12.4762 34.1429 24.381 21.2262 24.381 12.4762C24.381 9.38204 23.1267 6.41458 20.8941 4.22666C18.6616 2.03873 15.6335 0.80957 12.4762 0.80957Z" fill="#B3D0FF"/>
</svg>
