<svg width="32" height="32" viewBox="0 0 32 32" fill="none" xmlns="http://www.w3.org/2000/svg">
<path d="M27.8518 15.9576C27.8518 12.6652 26.7017 9.8725 24.4013 7.57961C22.1009 5.28672 19.3005 4.13971 16 4.13858V0.761719C18.1164 0.761719 20.099 1.163 21.9479 1.96557C23.7968 2.76814 25.4053 3.85155 26.7733 5.2158C28.1414 6.58005 29.2278 8.18406 30.0326 10.0278C30.8374 11.8716 31.2392 13.8482 31.2381 15.9576H27.8518ZM21.0794 15.9576C21.0794 14.5506 20.5855 13.3546 19.5979 12.3697C18.6102 11.3848 17.4109 10.8923 16 10.8923V7.51545C18.3421 7.51545 20.3389 8.33884 21.9903 9.98562C23.6416 11.6324 24.4667 13.6231 24.4656 15.9576H21.0794ZM29.4603 31.2379C25.8201 31.2379 22.2713 30.4286 18.814 28.8099C15.3566 27.1913 12.2949 25.0526 9.62878 22.3939C6.96268 19.7352 4.81806 16.6819 3.19492 13.2342C1.57178 9.78639 0.760774 6.248 0.761903 2.61899C0.761903 2.11246 0.931215 1.69036 1.26984 1.35267C1.60846 1.01498 2.03174 0.84614 2.53968 0.84614H9.39682C9.79189 0.84614 10.1446 0.972772 10.455 1.22604C10.7654 1.4793 10.9489 1.80292 11.0053 2.19689L12.1058 8.1064C12.1623 8.50036 12.1549 8.85944 12.0838 9.18362C12.0127 9.5078 11.8507 9.79595 11.5979 10.0481L7.53439 14.1848C8.71957 16.2109 10.2011 18.1104 11.9788 19.8832C13.7566 21.6561 15.7178 23.1897 17.8624 24.4842L21.8413 20.5164C22.0952 20.2631 22.4271 20.0734 22.8368 19.9474C23.2466 19.8213 23.6484 19.7858 24.0423 19.841L29.8836 21.0229C30.2787 21.1073 30.6032 21.2976 30.8571 21.5936C31.1111 21.8896 31.2381 22.2341 31.2381 22.6269V29.4651C31.2381 29.9716 31.0688 30.3937 30.7302 30.7314C30.3915 31.0691 29.9683 31.2379 29.4603 31.2379Z" fill="#B3D0FF"/>
</svg>
