<svg width="32" height="32" viewBox="0 0 32 32" fill="none" xmlns="http://www.w3.org/2000/svg">
<path d="M27.8519 15.9578C27.8519 12.6653 26.7017 9.87268 24.4013 7.57979C22.1009 5.2869 19.3005 4.13989 16.0001 4.13876V0.761902C18.1165 0.761902 20.0991 1.16319 21.948 1.96575C23.7969 2.76832 25.4053 3.85173 26.7734 5.21598C28.1414 6.58024 29.2279 8.18425 30.0326 10.028C30.8374 11.8718 31.2393 13.8484 31.2382 15.9578H27.8519ZM21.0794 15.9578C21.0794 14.5508 20.5856 13.3548 19.5979 12.3699C18.6103 11.385 17.411 10.8925 16.0001 10.8925V7.51563C18.3422 7.51563 20.339 8.33902 21.9903 9.9858C23.6417 11.6326 24.4668 13.6232 24.4657 15.9578H21.0794ZM29.4604 31.2381C25.8202 31.2381 22.2714 30.4288 18.814 28.8101C15.3567 27.1915 12.2949 25.0528 9.62884 22.3941C6.96274 19.7354 4.81812 16.6821 3.19498 13.2343C1.57184 9.78657 0.760835 6.24818 0.761964 2.61918C0.761964 2.11265 0.931276 1.69054 1.2699 1.35285C1.60852 1.01517 2.03181 0.846323 2.53974 0.846323H9.39688C9.79195 0.846323 10.1447 0.972956 10.4551 1.22622C10.7655 1.47949 10.9489 1.8031 11.0053 2.19707L12.1059 8.10658C12.1623 8.50055 12.155 8.85962 12.0839 9.1838C12.0128 9.50798 11.8508 9.79614 11.5979 10.0483L7.53445 14.1849C8.71964 16.2111 10.2011 18.1105 11.9789 19.8834C13.7567 21.6562 15.7179 23.1899 17.8625 24.4844L21.8413 20.5166C22.0953 20.2633 22.4271 20.0736 22.8369 19.9476C23.2466 19.8215 23.6485 19.786 24.0424 19.8412L29.8837 21.0231C30.2787 21.1075 30.6032 21.2977 30.8572 21.5938C31.1112 21.8898 31.2382 22.2343 31.2382 22.6271V29.4652C31.2382 29.9718 31.0688 30.3939 30.7302 30.7316C30.3916 31.0693 29.9683 31.2381 29.4604 31.2381Z" fill="#2166D5"/>
</svg>
