<svg width="35" height="35" viewBox="0 0 35 35" fill="none" xmlns="http://www.w3.org/2000/svg">
<path d="M17.4762 0.80957C8.27619 0.80957 0.809525 8.27624 0.809525 17.4762C0.809525 26.6762 8.27619 34.1429 17.4762 34.1429C26.6762 34.1429 34.1429 26.6762 34.1429 17.4762C34.1429 8.27624 26.6762 0.80957 17.4762 0.80957ZM25.2095 12.1429C24.9595 14.7762 23.8762 21.1762 23.3262 24.1262C23.0929 25.3762 22.6262 25.7929 22.1929 25.8429C21.2262 25.9262 20.4929 25.2096 19.5595 24.5929C18.0929 23.6262 17.2595 23.0262 15.8429 22.0929C14.1929 21.0096 15.2595 20.4096 16.2095 19.4429C16.4595 19.1929 20.7262 15.3096 20.8095 14.9596C20.8211 14.9066 20.8196 14.8515 20.805 14.7992C20.7905 14.747 20.7634 14.699 20.7262 14.6596C20.6262 14.5762 20.4929 14.6096 20.3762 14.6262C20.2262 14.6596 17.8929 16.2096 13.3429 19.2762C12.6762 19.7262 12.0762 19.9596 11.5429 19.9429C10.9429 19.9262 9.80952 19.6096 8.95952 19.3262C7.90952 18.9929 7.09286 18.8096 7.15952 18.2262C7.19286 17.9262 7.60952 17.6262 8.39286 17.3096C13.2595 15.1929 16.4929 13.7929 18.1095 13.1262C22.7429 11.1929 23.6929 10.8596 24.3262 10.8596C24.4595 10.8596 24.7762 10.8929 24.9762 11.0596C25.1429 11.1929 25.1929 11.3762 25.2095 11.5096C25.1929 11.6096 25.2262 11.9096 25.2095 12.1429Z" fill="#B3D0FF"/>
</svg>
