<svg width="34" height="35" viewBox="0 0 34 35" fill="none" xmlns="http://www.w3.org/2000/svg">
<path d="M16.7065 0.809525C7.50646 0.809525 0.0397949 8.27619 0.0397949 17.4762C0.0397949 26.6762 7.50646 34.1429 16.7065 34.1429C25.9065 34.1429 33.3731 26.6762 33.3731 17.4762C33.3731 8.27619 25.9065 0.809525 16.7065 0.809525ZM24.4398 12.1429C24.1898 14.7762 23.1065 21.1762 22.5565 24.1262C22.3231 25.3762 21.8565 25.7929 21.4231 25.8429C20.4565 25.9262 19.7231 25.2095 18.7898 24.5929C17.3231 23.6262 16.4898 23.0262 15.0731 22.0929C13.4231 21.0095 14.4898 20.4095 15.4398 19.4429C15.6898 19.1929 19.9565 15.3095 20.0398 14.9595C20.0514 14.9065 20.0498 14.8515 20.0353 14.7992C20.0208 14.7469 19.9937 14.699 19.9565 14.6595C19.8565 14.5762 19.7231 14.6095 19.6065 14.6262C19.4565 14.6595 17.1231 16.2095 12.5731 19.2762C11.9065 19.7262 11.3065 19.9595 10.7731 19.9429C10.1731 19.9262 9.03979 19.6095 8.18979 19.3262C7.13979 18.9929 6.32313 18.8095 6.38979 18.2262C6.42313 17.9262 6.8398 17.6262 7.62313 17.3095C12.4898 15.1929 15.7231 13.7929 17.3398 13.1262C21.9731 11.1929 22.9231 10.8595 23.5565 10.8595C23.6898 10.8595 24.0065 10.8929 24.2065 11.0595C24.3731 11.1929 24.4231 11.3762 24.4398 11.5095C24.4231 11.6095 24.4565 11.9095 24.4398 12.1429Z" fill="#2166D5"/>
</svg>
