<svg width="35" height="35" viewBox="0 0 35 35" fill="none" xmlns="http://www.w3.org/2000/svg">
<path d="M17.4762 0.80957C26.6812 0.80957 34.1429 8.27124 34.1429 17.4762C34.1429 26.6812 26.6812 34.1429 17.4762 34.1429C14.5308 34.1477 11.6373 33.3682 9.09288 31.8846L0.816215 34.1429L3.06955 25.8629C1.5847 23.3177 0.804627 20.4229 0.809548 17.4762C0.809548 8.27124 8.27122 0.80957 17.4762 0.80957ZM11.7962 9.6429L11.4629 9.65624C11.2471 9.66938 11.0362 9.72607 10.8429 9.8229C10.6621 9.92529 10.497 10.0533 10.3529 10.2029C10.1529 10.3912 10.0395 10.5546 9.91788 10.7129C9.30142 11.5144 8.9695 12.4984 8.97455 13.5096C8.97788 14.3262 9.19121 15.1212 9.52455 15.8646C10.2062 17.3679 11.3279 18.9596 12.8079 20.4346C13.1645 20.7896 13.5145 21.1462 13.8912 21.4779C15.7302 23.097 17.9216 24.2646 20.2912 24.8879L21.2379 25.0329C21.5462 25.0496 21.8545 25.0262 22.1645 25.0112C22.6499 24.9862 23.1239 24.8547 23.5529 24.6262C23.7711 24.5138 23.9841 24.3915 24.1912 24.2596C24.1912 24.2596 24.2629 24.2129 24.3995 24.1096C24.6245 23.9429 24.7629 23.8246 24.9495 23.6296C25.0879 23.4862 25.2079 23.3179 25.2995 23.1262C25.4295 22.8546 25.5595 22.3362 25.6129 21.9046C25.6529 21.5746 25.6412 21.3946 25.6362 21.2829C25.6295 21.1046 25.4812 20.9196 25.3195 20.8412L24.3495 20.4062C24.3495 20.4062 22.8995 19.7746 22.0129 19.3712C21.9201 19.3307 21.8207 19.3076 21.7195 19.3029C21.6055 19.2912 21.4903 19.304 21.3816 19.3405C21.273 19.377 21.1734 19.4364 21.0895 19.5146C21.0812 19.5112 20.9695 19.6062 19.7645 21.0662C19.6954 21.1592 19.6001 21.2294 19.4909 21.268C19.3817 21.3066 19.2634 21.3118 19.1512 21.2829C19.0426 21.2538 18.9363 21.217 18.8329 21.1729C18.6262 21.0862 18.5545 21.0529 18.4129 20.9929C17.4563 20.5755 16.5707 20.0115 15.7879 19.3212C15.5779 19.1379 15.3829 18.9379 15.1829 18.7446C14.5272 18.1166 13.9558 17.4062 13.4829 16.6312L13.3845 16.4729C13.3139 16.3665 13.2568 16.2517 13.2145 16.1312C13.1512 15.8862 13.3162 15.6896 13.3162 15.6896C13.3162 15.6896 13.7212 15.2462 13.9095 15.0062C14.0929 14.7729 14.2479 14.5462 14.3479 14.3846C14.5445 14.0679 14.6062 13.7429 14.5029 13.4912C14.0362 12.3512 13.5529 11.2162 13.0562 10.0896C12.9579 9.86624 12.6662 9.70624 12.4012 9.67457C12.3112 9.66457 12.2212 9.65457 12.1312 9.6479C11.9074 9.63678 11.6831 9.63901 11.4595 9.65457L11.7945 9.64124L11.7962 9.6429Z" fill="#B3D0FF"/>
</svg>
