<svg width="34" height="35" viewBox="0 0 34 35" fill="none" xmlns="http://www.w3.org/2000/svg">
<path d="M16.8576 0.809525C26.0626 0.809525 33.5243 8.27119 33.5243 17.4762C33.5243 26.6812 26.0626 34.1429 16.8576 34.1429C13.9122 34.1476 11.0187 33.3681 8.47427 31.8845L0.197608 34.1429L2.45094 25.8629C0.966096 23.3176 0.186021 20.4229 0.190941 17.4762C0.190941 8.27119 7.65261 0.809525 16.8576 0.809525ZM11.1776 9.64286L10.8443 9.65619C10.6285 9.66933 10.4176 9.72603 10.2243 9.82286C10.0435 9.92524 9.87844 10.0532 9.73427 10.2029C9.53428 10.3912 9.42094 10.5545 9.29927 10.7129C8.68281 11.5144 8.35089 12.4984 8.35594 13.5095C8.35927 14.3262 8.57261 15.1212 8.90594 15.8645C9.58761 17.3679 10.7093 18.9595 12.1893 20.4345C12.5459 20.7895 12.8959 21.1462 13.2726 21.4779C15.1116 23.097 17.303 24.2646 19.6726 24.8879L20.6193 25.0329C20.9276 25.0495 21.2359 25.0262 21.5459 25.0112C22.0313 24.9861 22.5053 24.8547 22.9343 24.6262C23.1525 24.5138 23.3655 24.3914 23.5726 24.2595C23.5726 24.2595 23.6443 24.2129 23.7809 24.1095C24.0059 23.9429 24.1443 23.8245 24.3309 23.6295C24.4693 23.4862 24.5893 23.3179 24.6809 23.1262C24.8109 22.8545 24.9409 22.3362 24.9943 21.9045C25.0343 21.5745 25.0226 21.3945 25.0176 21.2829C25.0109 21.1045 24.8626 20.9195 24.7009 20.8412L23.7309 20.4062C23.7309 20.4062 22.2809 19.7745 21.3943 19.3712C21.3015 19.3307 21.2021 19.3075 21.1009 19.3029C20.9869 19.2911 20.8717 19.304 20.763 19.3405C20.6544 19.377 20.5548 19.4363 20.4709 19.5145C20.4626 19.5112 20.3509 19.6062 19.1459 21.0662C19.0768 21.1591 18.9815 21.2294 18.8723 21.268C18.763 21.3065 18.6448 21.3117 18.5326 21.2829C18.424 21.2537 18.3177 21.217 18.2143 21.1729C18.0076 21.0862 17.9359 21.0529 17.7943 20.9929C16.8377 20.5754 15.9521 20.0114 15.1693 19.3212C14.9593 19.1379 14.7643 18.9379 14.5643 18.7445C13.9086 18.1166 13.3371 17.4062 12.8643 16.6312L12.7659 16.4729C12.6953 16.3665 12.6382 16.2517 12.5959 16.1312C12.5326 15.8862 12.6976 15.6895 12.6976 15.6895C12.6976 15.6895 13.1026 15.2462 13.2909 15.0062C13.4743 14.7729 13.6293 14.5462 13.7293 14.3845C13.9259 14.0679 13.9876 13.7429 13.8843 13.4912C13.4176 12.3512 12.9343 11.2162 12.4376 10.0895C12.3393 9.86619 12.0476 9.70619 11.7826 9.67452C11.6926 9.66452 11.6026 9.65452 11.5126 9.64786C11.2888 9.63674 11.0645 9.63896 10.8409 9.65452L11.1759 9.64119L11.1776 9.64286Z" fill="#2166D5"/>
</svg>
